<svg width="150" height="151" viewBox="0 0 150 151" fill="none" xmlns="http://www.w3.org/2000/svg">
<g id="IMG">
<path id="Vector" d="M123.462 53.9615C123.462 86.2692 75 123.962 75 123.962C75 123.962 26.5385 86.2692 26.5385 53.9615C26.5385 27.5662 48.6046 5.5 75 5.5C101.395 5.5 123.462 27.5662 123.462 53.9615Z" stroke="#3737C9" stroke-width="10" stroke-linecap="round" stroke-linejoin="round"/>
<path id="Vector_2" d="M75 70.1154C83.9215 70.1154 91.1538 62.8831 91.1538 53.9615C91.1538 45.04 83.9215 37.8077 75 37.8077C66.0784 37.8077 58.8461 45.04 58.8461 53.9615C58.8461 62.8831 66.0784 70.1154 75 70.1154Z" stroke="#3737C9" stroke-width="10" stroke-linecap="round" stroke-linejoin="round"/>
<path id="Vector_3" d="M118.909 107.808H128.846L145 145.5H5L21.1538 107.808H31.0906" stroke="#3737C9" stroke-width="10" stroke-linecap="round" stroke-linejoin="round"/>
</g>
</svg>
