<svg width="114" height="151" viewBox="0 0 114 151" fill="none" xmlns="http://www.w3.org/2000/svg">
<g id="one-finger-tap">
<path id="Vector 107" d="M108.681 145.5V114.988C108.681 99.6845 96.2745 87.2787 80.9712 87.2787H56.9041V42.3114C56.9041 35.1614 51.1079 29.3653 43.9579 29.3653C36.8079 29.3653 31.0118 35.1614 31.0118 42.3114L31.0117 101.257L26.6945 102.069C13.5678 104.54 7.32095 119.696 14.8945 130.698L16.6358 133.227L25.0732 145.5" stroke="#3737C9" stroke-width="10" stroke-linecap="round" stroke-linejoin="round"/>
<path id="Ellipse 302" d="M6.32979 53.2332C5.66877 50.3916 5.31931 47.4305 5.31931 44.3877C5.31931 22.9106 22.73 5.5 44.207 5.5C65.6841 5.5 83.0946 22.9106 83.0946 44.3877C83.0946 47.4305 82.7452 50.3916 82.0842 53.2332" stroke="#3737C9" stroke-width="10" stroke-linecap="round" stroke-linejoin="round"/>
</g>
</svg>
