<svg width="150" height="151" viewBox="0 0 150 151" fill="none" xmlns="http://www.w3.org/2000/svg">
<g id="shipment-add--shipping-parcel-shipment-add">
<path id="Vector" d="M75 5.5V48.5769" stroke="#3737C9" stroke-width="10" stroke-linecap="round" stroke-linejoin="round"/>
<path id="Vector_2" d="M5 48.5769H145V134.731C145 137.587 143.865 140.326 141.846 142.346C139.826 144.365 137.087 145.5 134.231 145.5H15.7692C12.913 145.5 10.1739 144.365 8.15423 142.346C6.13461 140.326 5 137.587 5 134.731V48.5769Z" stroke="#3737C9" stroke-width="10" stroke-linecap="round" stroke-linejoin="round"/>
<path id="Vector_3" d="M5 48.5769L21.1538 17.4538C22.8953 13.946 25.5603 10.9794 28.862 8.87308C32.1638 6.76681 35.9773 5.60063 39.8923 5.5H110.108C114.115 5.50212 118.041 6.62202 121.448 8.73377C124.853 10.8455 127.601 13.8654 129.385 17.4538L145 48.5769" stroke="#3737C9" stroke-width="10" stroke-linecap="round" stroke-linejoin="round"/>
<path id="Vector_4" d="M101.923 97.0385H48.0769" stroke="#3737C9" stroke-width="10" stroke-linecap="round" stroke-linejoin="round"/>
<path id="Vector_5" d="M75 70.1154V123.962" stroke="#3737C9" stroke-width="10" stroke-linecap="round" stroke-linejoin="round"/>
</g>
</svg>
